<svg xmlns="http://www.w3.org/2000/svg" xmlns:xlink="http://www.w3.org/1999/xlink" width="500" zoomAndPan="magnify" viewBox="0 0 375 374.999991" height="500" preserveAspectRatio="xMidYMid meet" version="1.0"><defs><g/><clipPath id="id1"><path d="M 64.191406 41.179688 L 310.941406 41.179688 L 310.941406 287.929688 L 64.191406 287.929688 Z M 64.191406 41.179688 " clip-rule="nonzero"/></clipPath><clipPath id="id2"><path d="M 106.714844 79.855469 L 267.964844 79.855469 L 267.964844 249.355469 L 106.714844 249.355469 Z M 106.714844 79.855469 " clip-rule="nonzero"/></clipPath></defs><rect x="-37.5" width="450" fill="#ffffff" y="-37.499999" height="449.999989" fill-opacity="1"/><rect x="-37.5" width="450" fill="#ffffff" y="-37.499999" height="449.999989" fill-opacity="1"/><rect x="-37.5" width="450" fill="#484848" y="-37.499999" height="449.999989" fill-opacity="1"/><g clip-path="url(#id1)"><path fill="#ffffff" d="M 64.191406 41.179688 L 64.191406 287.929688 L 310.941406 287.929688 L 310.941406 41.179688 L 64.191406 41.179688 M 303.082031 280.070312 L 71.886719 280.070312 L 71.886719 48.875 L 303.082031 48.875 L 303.082031 280.070312 " fill-opacity="1" fill-rule="nonzero"/></g><g clip-path="url(#id2)"><path fill="#ffffff" d="M 206.753906 169.066406 C 206.753906 193.921875 196.617188 197.089844 187.722656 197.089844 C 178.828125 197.089844 168.691406 193.921875 168.691406 169.066406 L 168.691406 79.914062 L 106.714844 79.914062 L 106.714844 170.605469 C 106.714844 219.835938 136.839844 249.296875 187.339844 249.296875 C 237.835938 249.296875 267.964844 219.929688 267.964844 170.605469 L 267.964844 79.914062 L 206.851562 79.914062 L 206.851562 169.066406 Z M 206.753906 169.066406 " fill-opacity="1" fill-rule="nonzero"/></g><g fill="#ffffff" fill-opacity="1"><g transform="translate(13.879354, 327.674597)"><g><path d="M 20.28125 -21.171875 L 20.28125 -8.421875 C 20.28125 -5.648438 19.492188 -3.503906 17.921875 -1.984375 C 16.359375 -0.460938 14.101562 0.296875 11.15625 0.296875 C 8.269531 0.296875 6.050781 -0.441406 4.5 -1.921875 C 2.945312 -3.398438 2.171875 -5.523438 2.171875 -8.296875 L 2.171875 -21.171875 L 7.921875 -21.171875 L 7.921875 -8.75 C 7.921875 -7.25 8.195312 -6.160156 8.75 -5.484375 C 9.3125 -4.804688 10.140625 -4.46875 11.234375 -4.46875 C 12.398438 -4.46875 13.242188 -4.800781 13.765625 -5.46875 C 14.296875 -6.144531 14.5625 -7.25 14.5625 -8.78125 L 14.5625 -21.171875 Z M 20.28125 -21.171875 "/></g></g></g><g fill="#ffffff" fill-opacity="1"><g transform="translate(36.318355, 327.674597)"><g><path d="M 22.4375 0 L 14.9375 0 L 7.21875 -14.921875 L 7.078125 -14.921875 C 7.265625 -12.566406 7.359375 -10.773438 7.359375 -9.546875 L 7.359375 0 L 2.28125 0 L 2.28125 -21.171875 L 9.765625 -21.171875 L 17.46875 -6.453125 L 17.546875 -6.453125 C 17.410156 -8.585938 17.34375 -10.300781 17.34375 -11.59375 L 17.34375 -21.171875 L 22.4375 -21.171875 Z M 22.4375 0 "/></g></g></g><g fill="#ffffff" fill-opacity="1"><g transform="translate(61.044688, 327.674597)"><g><path d="M 2.28125 0 L 2.28125 -21.171875 L 8.03125 -21.171875 L 8.03125 0 Z M 2.28125 0 "/></g></g></g><g fill="#ffffff" fill-opacity="1"><g transform="translate(71.366628, 327.674597)"><g><path d="M 7.921875 0 L 2.28125 0 L 2.28125 -21.171875 L 14.796875 -21.171875 L 14.796875 -16.578125 L 7.921875 -16.578125 L 7.921875 -12.546875 L 14.265625 -12.546875 L 14.265625 -7.953125 L 7.921875 -7.953125 Z M 7.921875 0 "/></g></g></g><g fill="#ffffff" fill-opacity="1"><g transform="translate(87.348988, 327.674597)"><g><path d="M 2.28125 0 L 2.28125 -21.171875 L 8.03125 -21.171875 L 8.03125 0 Z M 2.28125 0 "/></g></g></g><g fill="#ffffff" fill-opacity="1"><g transform="translate(97.670928, 327.674597)"><g><path d="M 11.71875 -16.78125 C 10.351562 -16.78125 9.289062 -16.222656 8.53125 -15.109375 C 7.769531 -13.992188 7.390625 -12.457031 7.390625 -10.5 C 7.390625 -6.425781 8.9375 -4.390625 12.03125 -4.390625 C 12.96875 -4.390625 13.875 -4.519531 14.75 -4.78125 C 15.632812 -5.039062 16.519531 -5.351562 17.40625 -5.71875 L 17.40625 -0.890625 C 15.632812 -0.0976562 13.632812 0.296875 11.40625 0.296875 C 8.21875 0.296875 5.769531 -0.628906 4.0625 -2.484375 C 2.351562 -4.335938 1.5 -7.019531 1.5 -10.53125 C 1.5 -12.71875 1.910156 -14.640625 2.734375 -16.296875 C 3.566406 -17.960938 4.753906 -19.238281 6.296875 -20.125 C 7.847656 -21.019531 9.671875 -21.46875 11.765625 -21.46875 C 14.054688 -21.46875 16.242188 -20.972656 18.328125 -19.984375 L 16.578125 -15.484375 C 15.796875 -15.847656 15.015625 -16.15625 14.234375 -16.40625 C 13.453125 -16.65625 12.613281 -16.78125 11.71875 -16.78125 Z M 11.71875 -16.78125 "/></g></g></g><g fill="#ffffff" fill-opacity="1"><g transform="translate(116.910562, 327.674597)"><g><path d="M 15.28125 0 L 14.234375 -3.96875 L 7.359375 -3.96875 L 6.28125 0 L 0 0 L 6.90625 -21.25 L 14.53125 -21.25 L 21.53125 0 Z M 13.046875 -8.65625 L 12.140625 -12.140625 C 11.921875 -12.910156 11.660156 -13.90625 11.359375 -15.125 C 11.054688 -16.351562 10.859375 -17.234375 10.765625 -17.765625 C 10.671875 -17.273438 10.492188 -16.460938 10.234375 -15.328125 C 9.984375 -14.203125 9.421875 -11.976562 8.546875 -8.65625 Z M 13.046875 -8.65625 "/></g></g></g><g fill="#ffffff" fill-opacity="1"><g transform="translate(138.437527, 327.674597)"><g/></g></g><g fill="#ffffff" fill-opacity="1"><g transform="translate(146.139171, 327.674597)"><g><path d="M 20.265625 -11.03125 C 20.265625 -7.5 19.289062 -4.773438 17.34375 -2.859375 C 15.394531 -0.953125 12.660156 0 9.140625 0 L 2.28125 0 L 2.28125 -21.171875 L 9.609375 -21.171875 C 13.015625 -21.171875 15.640625 -20.300781 17.484375 -18.5625 C 19.335938 -16.820312 20.265625 -14.3125 20.265625 -11.03125 Z M 14.328125 -10.828125 C 14.328125 -12.765625 13.941406 -14.203125 13.171875 -15.140625 C 12.398438 -16.078125 11.234375 -16.546875 9.671875 -16.546875 L 8 -16.546875 L 8 -4.6875 L 9.28125 -4.6875 C 11.019531 -4.6875 12.296875 -5.191406 13.109375 -6.203125 C 13.921875 -7.210938 14.328125 -8.753906 14.328125 -10.828125 Z M 14.328125 -10.828125 "/></g></g></g><g fill="#ffffff" fill-opacity="1"><g transform="translate(167.897764, 327.674597)"><g><path d="M 22.09375 -10.609375 C 22.09375 -7.046875 21.21875 -4.335938 19.46875 -2.484375 C 17.726562 -0.628906 15.171875 0.296875 11.796875 0.296875 C 8.484375 0.296875 5.9375 -0.632812 4.15625 -2.5 C 2.382812 -4.363281 1.5 -7.078125 1.5 -10.640625 C 1.5 -14.160156 2.378906 -16.847656 4.140625 -18.703125 C 5.910156 -20.566406 8.472656 -21.5 11.828125 -21.5 C 15.203125 -21.5 17.753906 -20.578125 19.484375 -18.734375 C 21.222656 -16.890625 22.09375 -14.179688 22.09375 -10.609375 Z M 7.53125 -10.609375 C 7.53125 -6.515625 8.953125 -4.46875 11.796875 -4.46875 C 13.242188 -4.46875 14.316406 -4.960938 15.015625 -5.953125 C 15.722656 -6.953125 16.078125 -8.503906 16.078125 -10.609375 C 16.078125 -12.722656 15.71875 -14.285156 15 -15.296875 C 14.289062 -16.304688 13.234375 -16.8125 11.828125 -16.8125 C 8.960938 -16.8125 7.53125 -14.742188 7.53125 -10.609375 Z M 7.53125 -10.609375 "/></g></g></g><g fill="#ffffff" fill-opacity="1"><g transform="translate(191.523861, 327.674597)"><g><path d="M 11.71875 -16.78125 C 10.351562 -16.78125 9.289062 -16.222656 8.53125 -15.109375 C 7.769531 -13.992188 7.390625 -12.457031 7.390625 -10.5 C 7.390625 -6.425781 8.9375 -4.390625 12.03125 -4.390625 C 12.96875 -4.390625 13.875 -4.519531 14.75 -4.78125 C 15.632812 -5.039062 16.519531 -5.351562 17.40625 -5.71875 L 17.40625 -0.890625 C 15.632812 -0.0976562 13.632812 0.296875 11.40625 0.296875 C 8.21875 0.296875 5.769531 -0.628906 4.0625 -2.484375 C 2.351562 -4.335938 1.5 -7.019531 1.5 -10.53125 C 1.5 -12.71875 1.910156 -14.640625 2.734375 -16.296875 C 3.566406 -17.960938 4.753906 -19.238281 6.296875 -20.125 C 7.847656 -21.019531 9.671875 -21.46875 11.765625 -21.46875 C 14.054688 -21.46875 16.242188 -20.972656 18.328125 -19.984375 L 16.578125 -15.484375 C 15.796875 -15.847656 15.015625 -16.15625 14.234375 -16.40625 C 13.453125 -16.65625 12.613281 -16.78125 11.71875 -16.78125 Z M 11.71875 -16.78125 "/></g></g></g><g fill="#ffffff" fill-opacity="1"><g transform="translate(210.763495, 327.674597)"><g><path d="M 20.28125 -21.171875 L 20.28125 -8.421875 C 20.28125 -5.648438 19.492188 -3.503906 17.921875 -1.984375 C 16.359375 -0.460938 14.101562 0.296875 11.15625 0.296875 C 8.269531 0.296875 6.050781 -0.441406 4.5 -1.921875 C 2.945312 -3.398438 2.171875 -5.523438 2.171875 -8.296875 L 2.171875 -21.171875 L 7.921875 -21.171875 L 7.921875 -8.75 C 7.921875 -7.25 8.195312 -6.160156 8.75 -5.484375 C 9.3125 -4.804688 10.140625 -4.46875 11.234375 -4.46875 C 12.398438 -4.46875 13.242188 -4.800781 13.765625 -5.46875 C 14.296875 -6.144531 14.5625 -7.25 14.5625 -8.78125 L 14.5625 -21.171875 Z M 20.28125 -21.171875 "/></g></g></g><g fill="#ffffff" fill-opacity="1"><g transform="translate(233.202497, 327.674597)"><g><path d="M 11.515625 0 L 7.1875 -15.25 L 7.046875 -15.25 C 7.253906 -12.65625 7.359375 -10.632812 7.359375 -9.1875 L 7.359375 0 L 2.28125 0 L 2.28125 -21.171875 L 9.90625 -21.171875 L 14.328125 -6.140625 L 14.4375 -6.140625 L 18.765625 -21.171875 L 26.390625 -21.171875 L 26.390625 0 L 21.140625 0 L 21.140625 -9.28125 C 21.140625 -9.757812 21.144531 -10.289062 21.15625 -10.875 C 21.175781 -11.46875 21.242188 -12.914062 21.359375 -15.21875 L 21.234375 -15.21875 L 16.953125 0 Z M 11.515625 0 "/></g></g></g><g fill="#ffffff" fill-opacity="1"><g transform="translate(261.866512, 327.674597)"><g><path d="M 14.859375 0 L 2.28125 0 L 2.28125 -21.171875 L 14.859375 -21.171875 L 14.859375 -16.578125 L 8 -16.578125 L 8 -13.25 L 14.34375 -13.25 L 14.34375 -8.65625 L 8 -8.65625 L 8 -4.65625 L 14.859375 -4.65625 Z M 14.859375 0 "/></g></g></g><g fill="#ffffff" fill-opacity="1"><g transform="translate(278.138407, 327.674597)"><g><path d="M 22.4375 0 L 14.9375 0 L 7.21875 -14.921875 L 7.078125 -14.921875 C 7.265625 -12.566406 7.359375 -10.773438 7.359375 -9.546875 L 7.359375 0 L 2.28125 0 L 2.28125 -21.171875 L 9.765625 -21.171875 L 17.46875 -6.453125 L 17.546875 -6.453125 C 17.410156 -8.585938 17.34375 -10.300781 17.34375 -11.59375 L 17.34375 -21.171875 L 22.4375 -21.171875 Z M 22.4375 0 "/></g></g></g><g fill="#ffffff" fill-opacity="1"><g transform="translate(302.864739, 327.674597)"><g><path d="M 11.625 0 L 5.90625 0 L 5.90625 -16.5 L 0.734375 -16.5 L 0.734375 -21.171875 L 16.78125 -21.171875 L 16.78125 -16.5 L 11.625 -16.5 Z M 11.625 0 "/></g></g></g><g fill="#ffffff" fill-opacity="1"><g transform="translate(320.381637, 327.674597)"><g><path d="M 22.09375 -10.609375 C 22.09375 -7.046875 21.21875 -4.335938 19.46875 -2.484375 C 17.726562 -0.628906 15.171875 0.296875 11.796875 0.296875 C 8.484375 0.296875 5.9375 -0.632812 4.15625 -2.5 C 2.382812 -4.363281 1.5 -7.078125 1.5 -10.640625 C 1.5 -14.160156 2.378906 -16.847656 4.140625 -18.703125 C 5.910156 -20.566406 8.472656 -21.5 11.828125 -21.5 C 15.203125 -21.5 17.753906 -20.578125 19.484375 -18.734375 C 21.222656 -16.890625 22.09375 -14.179688 22.09375 -10.609375 Z M 7.53125 -10.609375 C 7.53125 -6.515625 8.953125 -4.46875 11.796875 -4.46875 C 13.242188 -4.46875 14.316406 -4.960938 15.015625 -5.953125 C 15.722656 -6.953125 16.078125 -8.503906 16.078125 -10.609375 C 16.078125 -12.722656 15.71875 -14.285156 15 -15.296875 C 14.289062 -16.304688 13.234375 -16.8125 11.828125 -16.8125 C 8.960938 -16.8125 7.53125 -14.742188 7.53125 -10.609375 Z M 7.53125 -10.609375 "/></g></g></g><g fill="#ffffff" fill-opacity="1"><g transform="translate(344.007734, 327.674597)"><g><path d="M 16.125 -6.421875 C 16.125 -5.109375 15.789062 -3.941406 15.125 -2.921875 C 14.46875 -1.910156 13.507812 -1.117188 12.25 -0.546875 C 11 0.015625 9.523438 0.296875 7.828125 0.296875 C 6.421875 0.296875 5.238281 0.195312 4.28125 0 C 3.332031 -0.195312 2.335938 -0.546875 1.296875 -1.046875 L 1.296875 -6.140625 C 2.390625 -5.578125 3.523438 -5.140625 4.703125 -4.828125 C 5.878906 -4.515625 6.960938 -4.359375 7.953125 -4.359375 C 8.796875 -4.359375 9.414062 -4.503906 9.8125 -4.796875 C 10.207031 -5.085938 10.40625 -5.46875 10.40625 -5.9375 C 10.40625 -6.226562 10.328125 -6.476562 10.171875 -6.6875 C 10.015625 -6.90625 9.757812 -7.125 9.40625 -7.34375 C 9.050781 -7.570312 8.113281 -8.03125 6.59375 -8.71875 C 5.207031 -9.34375 4.171875 -9.945312 3.484375 -10.53125 C 2.796875 -11.125 2.285156 -11.800781 1.953125 -12.5625 C 1.617188 -13.332031 1.453125 -14.238281 1.453125 -15.28125 C 1.453125 -17.226562 2.160156 -18.742188 3.578125 -19.828125 C 4.992188 -20.921875 6.941406 -21.46875 9.421875 -21.46875 C 11.617188 -21.46875 13.851562 -20.960938 16.125 -19.953125 L 14.375 -15.53125 C 12.394531 -16.445312 10.6875 -16.90625 9.25 -16.90625 C 8.507812 -16.90625 7.96875 -16.769531 7.625 -16.5 C 7.289062 -16.238281 7.125 -15.914062 7.125 -15.53125 C 7.125 -15.125 7.335938 -14.753906 7.765625 -14.421875 C 8.191406 -14.097656 9.359375 -13.5 11.265625 -12.625 C 13.085938 -11.800781 14.351562 -10.921875 15.0625 -9.984375 C 15.769531 -9.046875 16.125 -7.859375 16.125 -6.421875 Z M 16.125 -6.421875 "/></g></g></g></svg>